<?xml version="1.0" encoding="UTF-8" standalone="no"?>
<svg version="1.1" xmlns="http://www.w3.org/2000/svg" xmlns:xlink="http://www.w3.org/1999/xlink" preserveAspectRatio="xMidYMid meet" viewBox="-0.003559112548828125 108.07829284667969 640.002197265625 423.875244140625">
    <defs>
        <path d="M370.9 140.74C362.64 146.99 347.41 152.12 337.07 152.14C333.66 152.14 306.37 152.16 302.96 152.16C292.61 152.18 277.38 147.05 269.14 140.8C269.14 140.8 141.78 44.16 57.24 183.04C-27.28 321.87 6.78 473.07 6.78 473.07C12.75 510.09 32.41 534.8 69.53 531.69C106.54 528.6 186.87 431.99 186.87 431.99C193.51 424.03 207.41 417.53 217.73 417.53C238.18 417.53 401.77 417.5 422.22 417.49C432.55 417.49 446.45 424 453.07 431.96C453.07 431.96 533.41 528.57 570.48 531.66C607.55 534.76 627.27 510.03 633.2 473.04C633.19 473.04 667.31 321.86 582.77 183C498.24 44.12 413.28 149.2 370.9 140.74Z" id="b18h0JGP1Q" />
    </defs>
    <use xlink:href="#b18h0JGP1Q" opacity="1" fill="#f5f7fa" fill-opacity="1" />
    <use xlink:href="#b18h0JGP1Q" opacity="1" fill-opacity="0" stroke="#f5f7fa" stroke-width="1" stroke-opacity="0" />
</svg>