<?xml version="1.0" encoding="UTF-8"?>
<svg version="1.1" viewBox="116.83001708984375 0 365.70989990234375 639.9999389648438" xmlns="http://www.w3.org/2000/svg" xmlns:xlink="http://www.w3.org/1999/xlink">
    <defs>
        <path id="b" d="m417.25 111.98 2.86 0.29 2.83 0.41 2.8 0.51 2.75 0.63 2.72 0.73 2.67 0.83 2.62 0.94 2.58 1.03 2.52 1.13 2.48 1.22 2.42 1.32 2.36 1.41 2.3 1.49 2.24 1.58 2.17 1.66 2.11 1.74 2.04 1.82 1.97 1.9 1.89 1.97 1.82 2.04 1.74 2.11 1.66 2.18 1.58 2.24 1.49 2.3 1.41 2.37 1.31 2.42 1.22 2.47 1.13 2.53 1.04 2.58 0.93 2.63 0.83 2.67 0.73 2.72 0.62 2.76 0.52 2.79 0.4 2.84 0.29 2.87 0.18 2.9 0.06 2.93v274.12l-0.06 2.93-0.18 2.9-0.29 2.87-0.4 2.84-0.52 2.79-0.62 2.76-0.73 2.72-0.83 2.67-0.93 2.63-1.04 2.58-1.13 2.53-1.22 2.47-1.31 2.42-1.41 2.37-1.49 2.3-1.58 2.24-1.66 2.18-1.74 2.11-1.82 2.04-1.89 1.97-1.97 1.9-2.04 1.82-2.11 1.74-2.17 1.66-2.24 1.58-2.3 1.49-2.36 1.41-2.42 1.32-2.48 1.22-2.52 1.13-2.58 1.03-2.62 0.94-2.67 0.83-2.72 0.73-2.75 0.63-2.8 0.51-2.83 0.41-2.86 0.29-2.9 0.17-2.93 0.06h-223.48l-2.92-0.06-2.9-0.17-2.87-0.29-2.83-0.41-2.79-0.51-2.76-0.63-2.71-0.73-2.67-0.83-2.63-0.94-2.57-1.03-2.53-1.13-2.47-1.22-2.42-1.32-2.36-1.41-2.3-1.49-2.24-1.58-2.18-1.66-2.1-1.74-2.04-1.82-1.97-1.9-1.9-1.97-1.81-2.04-1.74-2.11-1.66-2.18-1.58-2.24-1.49-2.3-1.41-2.37-1.31-2.42-1.23-2.47-1.13-2.53-1.03-2.58-0.93-2.63-0.83-2.67-0.73-2.72-0.63-2.76-0.51-2.79-0.41-2.84-0.29-2.87-0.17-2.9-0.06-2.93v-274.12l0.06-2.93 0.17-2.9 0.29-2.87 0.41-2.84 0.51-2.79 0.63-2.76 0.73-2.72 0.83-2.67 0.93-2.63 1.03-2.58 1.13-2.53 1.23-2.47 1.31-2.42 1.41-2.37 1.49-2.3 1.58-2.24 1.66-2.18 1.74-2.11 1.81-2.04 1.9-1.97 1.97-1.9 2.04-1.82 2.1-1.74 2.18-1.66 2.24-1.58 2.3-1.49 2.36-1.41 2.42-1.32 2.47-1.22 2.53-1.13 2.57-1.03 2.63-0.94 2.67-0.83 2.71-0.73 2.76-0.63 2.79-0.51 2.83-0.41 2.87-0.29 2.9-0.17 2.92-0.06h223.48l2.93 0.06 2.9 0.17zm-231.4 20.13-2.07 0.12-2.05 0.21-2.02 0.29-1.99 0.37-1.97 0.44-1.94 0.53-1.91 0.59-1.87 0.67-1.84 0.74-1.81 0.8-1.76 0.88-1.73 0.94-1.69 1.01-1.64 1.06-1.6 1.13-1.55 1.19-1.51 1.24-1.46 1.3-1.4 1.36-1.36 1.41-1.3 1.46-1.24 1.5-1.18 1.56-1.13 1.6-1.07 1.65-1 1.68-0.94 1.73-0.87 1.77-0.81 1.81-0.74 1.84-0.66 1.88-0.6 1.91-0.52 1.94-0.44 1.97-0.37 2-0.29 2.03-0.21 2.05-0.13 2.07-0.04 2.1v274.12l0.04 2.1 0.13 2.07 0.21 2.05 0.29 2.03 0.37 1.99 0.44 1.98 0.52 1.94 0.6 1.91 0.66 1.88 0.74 1.84 0.81 1.81 0.87 1.76 0.94 1.73 1 1.69 1.07 1.65 1.13 1.6 1.18 1.56 1.24 1.5 1.3 1.46 1.36 1.41 1.4 1.36 1.46 1.3 1.51 1.24 1.55 1.19 1.6 1.13 1.64 1.06 1.69 1.01 1.73 0.94 1.76 0.87 1.81 0.81 1.84 0.74 1.87 0.67 1.91 0.59 1.94 0.53 1.97 0.44 1.99 0.37 2.02 0.29 2.05 0.21 2.07 0.12 2.09 0.05h223.48l1.4-0.04 1.39-0.09 1.38-0.16 1.38-0.22 1.37-0.29 1.37-0.35 1.36-0.41 1.35-0.48 1.34-0.54 1.34-0.6 1.33-0.67 1.33-0.73 1.32-0.8 1.31-0.86 1.31-0.92 1.3-0.98 1.29-1.05 1.28-1.12 1.28-1.17 1.28-1.24 1.26-1.31 1.26-1.36 1.26-1.43 1.25-1.5 1.24-1.56 1.23-1.62 1.23-1.68 1.22-1.75 1.21-1.81 1.21-1.88 1.2-1.94 1.2-2 1.19-2.07 1.18-2.13 1.17-2.19 1.17-2.26 1.16-2.32 1.16-2.39 1.15-2.44 1.14-2.52v-274.12l-0.04-2.1-0.13-2.07-0.21-2.05-0.28-2.03-0.37-1.99-0.45-1.98-0.52-1.94-0.59-1.91-0.67-1.88-0.74-1.84-0.8-1.81-0.88-1.76-0.94-1.73-1-1.69-1.07-1.65-1.12-1.6-1.19-1.56-1.24-1.5-1.3-1.46-1.35-1.41-1.41-1.36-1.46-1.3-1.5-1.24-1.56-1.19-1.59-1.13-1.65-1.06-1.68-1.01-1.73-0.94-1.77-0.87-1.8-0.81-1.84-0.74-1.88-0.67-1.91-0.59-1.93-0.53-1.97-0.44-2-0.37-2.02-0.29-2.05-0.21-2.07-0.12-2.09-0.05h-223.48l-2.09 0.05z"></path>
        <path id="a" d="m416.71 38.29c-3.9-21.47-24.04-38.29-45.86-38.29h-142.34c-21.8 0-41.95 16.82-45.86 38.29-1.48 8.18-13.38 73.62-14.87 81.8-0.54 2.97 0.27 6.01 2.2 8.32 1.93 2.32 4.78 3.65 7.8 3.65h243.81c3.01 0 5.87-1.34 7.8-3.65s2.74-5.35 2.19-8.32c-2.97-16.36-13.38-73.62-14.87-81.8z"></path>
        <path id="c" d="m421.59 507.94h-243.81c-3.02 0-5.87 1.34-7.8 3.65s-2.74 5.35-2.2 8.32c1.49 8.18 13.38 73.62 14.87 81.8 3.91 21.48 24.06 38.29 45.86 38.29h142.34c21.81 0 41.95-16.81 45.86-38.29 1.49-8.18 13.38-73.62 14.87-81.8 0.54-2.97-0.27-6.01-2.2-8.32-1.92-2.31-4.78-3.65-7.79-3.65z"></path>
    </defs>
    <use fill="#f5f7fa" xlink:href="#b" />
    <use fill-opacity="0" stroke="#f5f7fa" stroke-opacity="0" xlink:href="#b" />
    <use fill="#f5f7fa" xlink:href="#a" />
    <use fill-opacity="0" stroke="#f5f7fa" stroke-opacity="0" xlink:href="#a" />
    <use fill="#f5f7fa" xlink:href="#c" />
    <use fill-opacity="0" stroke="#f5f7fa" stroke-opacity="0" xlink:href="#c" />
</svg>