<svg fill="#f5f7fa" xmlns="http://www.w3.org/2000/svg" xmlns:xlink="http://www.w3.org/1999/xlink" version="1.1" x="0px" y="0px" viewBox="27.58300018310547 5.166999816894531 44.83300018310547 90" enable-background="new 0 0 100 100" xml:space="preserve">
	<path d="M65.416,5.167H34.583c-3.866,0-7,3.134-7,7v76c0,3.866,3.134,7,7,7h30.833c3.867,0,7-3.134,7-7v-76  C72.416,8.3,69.283,5.167,65.416,5.167z M69.416,88.166c0,2.206-1.794,4-4,4H34.583c-2.206,0-4-1.794-4-4v-76c0-2.206,1.794-4,4-4  H38h0.926c0.371,0,0.567,0.302,0.567,0.643c0,0.002,0.007,0.001,0.007,0.003c0,1.031,0.896,2,2,2h4.25h7.75h5.25  c1.104,0,2-0.969,2-2c0-0.002,0.007-0.001,0.007-0.003c0-0.341,0.196-0.643,0.567-0.643h0.926h3.166c2.206,0,4,1.794,4,4V88.166z"></path>
</svg>