<?xml version="1.0" encoding="UTF-8"?>
<svg data-name="Layer 1" viewBox="0 0 1070.39 200.13" xmlns="http://www.w3.org/2000/svg">
    <defs>
        <style>.cls-1{opacity:0.99;}.cls-2{fill:#111d4a;}</style>
    </defs>
<title>Ooperz</title>
<g class="cls-1">
    <rect class="cls-2" x="100" width="50" height="9" rx="4" ry="4"/>
    <rect class="cls-2" x="100" y="31" width="50" height="9" rx="4.5" ry="4.5"/>
    <rect class="cls-2" x="100" y="61" width="50" height="9" rx="4.5" ry="4.5"/>
    <rect class="cls-2" y="91" width="150" height="9" rx="4.5" ry="4.5"/>
    <rect class="cls-2" y="121" width="150" height="9" rx="4.5" ry="4.5"/>
</g>
<rect class="cls-2" width="80" height="70" rx="12" ry="12"/>
<path class="cls-2" transform="translate(-96.79 -120.76)" d="M375.74,127a59.34,59.34,0,0,1,23.79,4.82A61.14,61.14,0,0,1,432,164.28a61.21,61.21,0,0,1,0,47.57,61.14,61.14,0,0,1-32.45,32.45,61.24,61.24,0,0,1-47.58,0,61.05,61.05,0,0,1-32.45-32.45,60.57,60.57,0,0,1,2.89-53.21,7,7,0,0,1,3.71-3,5,5,0,0,1,4.54.55,6.48,6.48,0,0,1,2.89,3.72,5.4,5.4,0,0,1-.69,4.53,49.27,49.27,0,0,0-6,23.65,47.75,47.75,0,0,0,3.85,19.12,48.75,48.75,0,0,0,26,26,49.35,49.35,0,0,0,38.22,0,48.75,48.75,0,0,0,26-26,49.38,49.38,0,0,0,0-38.23,48.72,48.72,0,0,0-26-26,47.91,47.91,0,0,0-19.11-3.85,49.36,49.36,0,0,0-23.65,6,5.36,5.36,0,0,1-4.54.69,6.35,6.35,0,0,1-3.71-2.89,5.33,5.33,0,0,1-.69-4.53,6.44,6.44,0,0,1,2.89-3.72A60.84,60.84,0,0,1,375.74,127Z"/>
<path class="cls-2" transform="translate(-96.79 -120.76)" d="M536.34,127a59.34,59.34,0,0,1,23.79,4.82,61.08,61.08,0,0,1,32.44,32.45,61.1,61.1,0,0,1,0,47.57,61.08,61.08,0,0,1-32.44,32.45,61.24,61.24,0,0,1-47.58,0,61.05,61.05,0,0,1-32.45-32.45A60.57,60.57,0,0,1,483,158.64a7,7,0,0,1,3.71-3,5,5,0,0,1,4.54.55,6.48,6.48,0,0,1,2.89,3.72,5.4,5.4,0,0,1-.69,4.53,49.27,49.27,0,0,0-6.05,23.65,47.75,47.75,0,0,0,3.85,19.12,48.75,48.75,0,0,0,26,26,49.35,49.35,0,0,0,38.22,0,48.75,48.75,0,0,0,26-26,49.38,49.38,0,0,0,0-38.23,48.72,48.72,0,0,0-26-26,47.91,47.91,0,0,0-19.11-3.85,49.36,49.36,0,0,0-23.65,6,5.36,5.36,0,0,1-4.54.69,6.35,6.35,0,0,1-3.71-2.89,5.33,5.33,0,0,1-.69-4.53,6.44,6.44,0,0,1,2.89-3.72A60.84,60.84,0,0,1,536.34,127Z"/>
<path class="cls-2" transform="translate(-96.79 -120.76)" d="M696.66,127a60.33,60.33,0,0,1,23.93,4.82,60.38,60.38,0,0,1,32.58,32.58A60.33,60.33,0,0,1,758,188.34,58.33,58.33,0,0,1,753.17,212a62.27,62.27,0,0,1-13.06,19.25,61.25,61.25,0,0,1-19.52,13.06,60.32,60.32,0,0,1-23.93,4.81,59.59,59.59,0,0,1-31.35-8.8,5.83,5.83,0,0,1-2.75-3.71,5.76,5.76,0,0,1,.83-4.54,6.41,6.41,0,0,1,3.57-2.88,5.13,5.13,0,0,1,4.4.68,56.23,56.23,0,0,0,12.38,5.5,43.87,43.87,0,0,0,12.92,1.93,48.73,48.73,0,0,0,19.25-3.85A50.6,50.6,0,0,0,731.72,223a48.28,48.28,0,0,0,10.59-15.54,47.74,47.74,0,0,0,3.85-19.11,48.73,48.73,0,0,0-3.85-19.25,49.05,49.05,0,0,0-26.4-26.4,48.73,48.73,0,0,0-19.25-3.85A48.27,48.27,0,0,0,662,153.28a50.6,50.6,0,0,0-10.45,15.81,48.73,48.73,0,0,0-3.85,19.25v126.5a6.06,6.06,0,0,1-1.65,4.26,5.38,5.38,0,0,1-4.12,1.79,6.09,6.09,0,0,1-6.05-6.05V133.06a6.09,6.09,0,0,1,6.05-6,5.38,5.38,0,0,1,4.12,1.79,6.06,6.06,0,0,1,1.65,4.26v18.7A60.81,60.81,0,0,1,669,133.61,59.4,59.4,0,0,1,696.66,127Z"/>
<path class="cls-2" transform="translate(-96.79 -120.76)" d="M826.73,179.26a6.11,6.11,0,0,1,6-6h71.5a49.19,49.19,0,0,0-17.59-24.61A49.17,49.17,0,0,0,834,145.16a50.36,50.36,0,0,0-17.74,16.5,53.32,53.32,0,0,0-7.14,18.43q-.28,2.21-.42,4c-.09,1.19-.14,2.52-.14,4a47.76,47.76,0,0,0,3.86,19.12,48.77,48.77,0,0,0,26,26A47.74,47.74,0,0,0,857.53,237a49,49,0,0,0,21.73-4.95,48.3,48.3,0,0,0,20.35-18.83,48.63,48.63,0,0,0,2.47-4.82,6.5,6.5,0,0,1,3.44-3.16,5.27,5.27,0,0,1,4.54.14,6.46,6.46,0,0,1,3.16,3.44,5.25,5.25,0,0,1-.14,4.53,58.76,58.76,0,0,1-6.87,11.55,61.08,61.08,0,0,1-21.45,17.88,60,60,0,0,1-27.23,6.32,59.25,59.25,0,0,1-23.78-4.81,61.05,61.05,0,0,1-32.45-32.45,59.27,59.27,0,0,1-4.82-23.79,60.13,60.13,0,0,1,.83-9.9,69.64,69.64,0,0,1,3.16-12,49.29,49.29,0,0,1,5.64-10.86A61,61,0,0,1,879,130.86a62,62,0,0,1,18.16,10.59,61.29,61.29,0,0,1,13.47,16.23,57.55,57.55,0,0,1,7.15,20.48,5,5,0,0,1-1,4.4,6.78,6.78,0,0,1-4,2.48,2.79,2.79,0,0,1-1.24.27H832.78a6.09,6.09,0,0,1-6-6.05Z"/>
<path class="cls-2" transform="translate(-96.79 -120.76)" d="M962.58,127.29a6.09,6.09,0,0,1,6,6V243.06a6.05,6.05,0,0,1-12.1,0V133.34a6.11,6.11,0,0,1,6.05-6Zm55-.28a6.05,6.05,0,0,1,0,12.1,48.13,48.13,0,0,0-26.12,7.43,5.78,5.78,0,0,1-3,.82,5.63,5.63,0,0,1-5.23-2.75,5.77,5.77,0,0,1-.83-4.53,5.91,5.91,0,0,1,2.75-3.72A59.76,59.76,0,0,1,1017.58,127Z"/>
<path class="cls-2" transform="translate(-96.79 -120.76)" d="M1161.13,237a6.05,6.05,0,0,1,0,12.1h-104a6.09,6.09,0,0,1-6-6.05v-.27a7.31,7.31,0,0,1,1.65-4.4L1132,152a6.49,6.49,0,0,1,4.26-2.06,5.87,5.87,0,0,1,4.27,1.51,5.64,5.64,0,0,1,2.06,4.12,6,6,0,0,1-1.51,4.4l-70.68,77Zm-78.92-97.9a5.39,5.39,0,0,1-4.13-1.78,6.34,6.34,0,0,1,0-8.53,5.4,5.4,0,0,1,4.13-1.79h75.35a6.05,6.05,0,0,1,0,12.1Z"/>
</svg>