<svg fill="#0f084b" xmlns="http://www.w3.org/2000/svg" xmlns:xlink="http://www.w3.org/1999/xlink" version="1.1" x="0px" y="0px" viewBox="14.375 5 71.25099182128906 90" enable-background="new 0 0 100 100" xml:space="preserve">
	<path fill-rule="evenodd" clip-rule="evenodd" d="M20.937,5c-3.604,0-6.562,2.959-6.562,6.562v76.876  c0,3.603,2.958,6.562,6.562,6.562h58.127c3.604,0,6.562-2.959,6.562-6.562V11.562C85.625,7.959,82.667,5,79.063,5H20.937L20.937,5z   M20,13.323h60V80H20V13.323L20,13.323z M50,84.22c1.812,0,3.281,1.47,3.281,3.28c0,1.812-1.47,3.281-3.281,3.281  s-3.281-1.47-3.281-3.281C46.719,85.69,48.188,84.22,50,84.22z"></path>
</svg>